<?xml version="1.0" encoding="iso-8859-1"?>
<!-- Generator: Adobe Illustrator 19.0.0, SVG Export Plug-In . SVG Version: 6.00 Build 0)  -->
<svg version="1.1" id="Layer_1" xmlns="http://www.w3.org/2000/svg" xmlns:xlink="http://www.w3.org/1999/xlink" x="0px" y="0px"
	 viewBox="0 0 512 512" style="enable-background:new 0 0 512 512;" xml:space="preserve">
<path style="fill:#FFDB6C;" d="M374.08,494.873V17.127C374.08,7.668,381.748,0,391.207,0h18.728c9.459,0,17.127,7.668,17.127,17.127
	v477.746c0,9.459-7.668,17.127-17.127,17.127h-18.728C381.748,512,374.08,504.332,374.08,494.873z"/>
<path style="fill:#FFB966;" d="M400.571,494.873V17.127c0-8.121-5.66-14.908-13.245-16.668C388.575,0.168,389.87,0,391.207,0h18.728
	c9.459,0,17.127,7.668,17.127,17.127v477.746c0,9.459-7.668,17.127-17.127,17.127h-18.728c-1.337,0-2.633-0.168-3.882-0.458
	C394.911,509.781,400.571,502.994,400.571,494.873z"/>
<path style="fill:#3CC247;" d="M374.08,260.462V26.294H100.872c-14.045,0-21.195,16.875-11.425,26.965l87.261,90.118l-87.26,90.118
	c-9.77,10.09-2.62,26.965,11.425,26.965H374.08V260.462z"/>
<path style="fill:#2DA85F;" d="M234.369,52.837H89.067c-9.18-10.131-2.047-26.541,11.805-26.541H374.08v234.168h-27.917v-95.832
	C346.164,102.889,296.111,52.837,234.369,52.837z"/>
<g>
	<circle style="fill:#ADE972;" cx="334.761" cy="61.67" r="8.83"/>
	<circle style="fill:#ADE972;" cx="299.263" cy="61.67" r="8.83"/>
	<circle style="fill:#ADE972;" cx="263.754" cy="61.67" r="8.83"/>
	<circle style="fill:#ADE972;" cx="228.256" cy="61.67" r="8.83"/>
	<circle style="fill:#ADE972;" cx="192.759" cy="61.67" r="8.83"/>
	<circle style="fill:#ADE972;" cx="157.261" cy="61.67" r="8.83"/>
	<circle style="fill:#ADE972;" cx="334.761" cy="226.09" r="8.83"/>
	<circle style="fill:#ADE972;" cx="299.263" cy="226.09" r="8.83"/>
	<circle style="fill:#ADE972;" cx="263.754" cy="226.09" r="8.83"/>
	<circle style="fill:#ADE972;" cx="228.256" cy="226.09" r="8.83"/>
	<circle style="fill:#ADE972;" cx="192.759" cy="226.09" r="8.83"/>
	<circle style="fill:#ADE972;" cx="157.261" cy="226.09" r="8.83"/>
</g>
<g>
</g>
<g>
</g>
<g>
</g>
<g>
</g>
<g>
</g>
<g>
</g>
<g>
</g>
<g>
</g>
<g>
</g>
<g>
</g>
<g>
</g>
<g>
</g>
<g>
</g>
<g>
</g>
<g>
</g>
</svg>
